HIERARCHY
ROOT Hips
{
	OFFSET 0.00 0.00 0.00
	CHANNELS 6 Xposition Yposition Zposition Xrotation Yrotation Zrotation
	JOINT Spine
	{
		OFFSET 0.00000 7.17041 0.00000
		CHANNELS 3 Xrotation Yrotation Zrotation
		JOINT Head
		{
			OFFSET 0.00000 14.27615 0.00000
			CHANNELS 3 Xrotation Yrotation Zrotation
			End Site
			{
				OFFSET 0.00000 4.52755 0.00000
			}
		}
		JOINT LeftShoulder
		{
			OFFSET 0.00000 10.71824 0.00000
			CHANNELS 3 Xrotation Yrotation Zrotation
			JOINT LeftArm
			{
				OFFSET 7.05887 0.00000 0.00000
				CHANNELS 3 Xrotation Yrotation Zrotation
				JOINT LeftForeArm
				{
					OFFSET 10.95552 0.00000 0.00000
					CHANNELS 3 Yrotation Zrotation Xrotation
					JOINT LeftHand
					{
						OFFSET 8.19372 0.00000 0.00000
						CHANNELS 3 Xrotation Yrotation Zrotation
						JOINT LeftHandThumb1
						{
							OFFSET 0.00000 0.00000 0.00000
							CHANNELS 3 Xrotation Zrotation Yrotation
							End Site
							{
								OFFSET 0.00000 0.00000 3.93700
							}
						}
						End Site
						{
							OFFSET 3.93700 0.00000 0.00000
						}
					}
				}
			}
		}
		JOINT RightShoulder
		{
			OFFSET 0.00000 10.71824 0.00000
			CHANNELS 3 Xrotation Yrotation Zrotation
			JOINT RightArm
			{
				OFFSET -7.05887 0.00000 0.00000
				CHANNELS 3 Xrotation Yrotation Zrotation
				JOINT RightForeArm
				{
					OFFSET -10.95552 0.00000 0.00000
					CHANNELS 3 Yrotation Zrotation Xrotation
					JOINT RightHand
					{
						OFFSET -8.19372 0.00000 0.00000
						CHANNELS 3 Xrotation Yrotation Zrotation
						JOINT RightHandThumb1
						{
							OFFSET 0.00000 0.00000 0.00000
							CHANNELS 3 Xrotation Zrotation Yrotation
							End Site
							{
								OFFSET 0.00000 0.00000 3.93700
							}
						}
						End Site
						{
							OFFSET -3.93700 0.00000 0.00000
						}
					}
				}
			}
		}
	}
	JOINT LeftUpLeg
	{
		OFFSET 4.31835 0.00000 0.00000
		CHANNELS 3 Xrotation Yrotation Zrotation
		JOINT LeftLeg
		{
			OFFSET 0.00000 -17.32364 0.00000
			CHANNELS 3 Xrotation Yrotation Zrotation
			JOINT LeftFoot
			{
				OFFSET 0.00000 -16.27037 0.00000
				CHANNELS 3 Xrotation Yrotation Zrotation
				JOINT LeftToeBase
				{
					OFFSET 0.00000 -1.27412 4.75510
					CHANNELS 3 Xrotation Yrotation Zrotation
					End Site
					{
						OFFSET 0.00000 0.00000 2.95275
					}
				}
			}
		}
	}
	JOINT RightUpLeg
	{
		OFFSET -4.31835 0.00000 0.00000
		CHANNELS 3 Xrotation Yrotation Zrotation
		JOINT RightLeg
		{
			OFFSET 0.00000 -17.32364 0.00000
			CHANNELS 3 Xrotation Yrotation Zrotation
			JOINT RightFoot
			{
				OFFSET 0.00000 -16.27037 0.00000
				CHANNELS 3 Xrotation Yrotation Zrotation
				JOINT RightToeBase
				{
					OFFSET 0.00000 -1.27412 4.75510
					CHANNELS 3 Xrotation Yrotation Zrotation
					End Site
					{
						OFFSET 0.00000 0.00000 2.95275
					}
				}
			}
		}
	}
}
MOTION
Frames: 20
Frame Time: 0.008333
 -5.4254 35.2697 -9.6242 -1.5974 1.3880 -3.1898 -3.1315 -1.9686 0.7489 -9.0084 -16.5970 -3.8097 15.8529 14.0328 -16.5853 -12.8827 -23.5868 -71.6755 -13.6750 0.0000 15.4889 -0.3773 -2.3663 -9.0612 33.1476 -0.0000 26.2537 -23.3826 9.8848 -40.5099 -38.8857 31.7468 -2.3524 30.4431 0.0000 11.6615 2.3791 6.8132 -19.3008 32.8623 0.0000 -24.3270 9.8136 12.0080 2.8270 -8.8056 -0.0000 -0.0000 -11.6424 25.1437 0.4563 21.2409 -0.0000 0.0000 9.9627 -9.4474 1.0660 -4.5625 0.0000 -0.0000 -5.9082 -27.5869 -3.6826 12.5294 -0.0000 0.0000
 -5.4276 35.2696 -9.6291 -1.5720 1.3683 -3.2081 -3.1513 -1.8176 0.7231 -9.1303 -16.7157 -3.8421 15.8450 14.0037 -16.5931 -12.8938 -23.6981 -71.6440 -13.7809 0.0000 15.4622 -0.3863 -2.4549 -8.9461 33.1476 -0.0000 26.2537 -23.5909 10.1400 -40.5273 -41.5329 31.1163 -0.2529 30.1475 0.0000 9.1555 2.4595 6.6781 -20.2720 32.8623 0.0000 -24.3270 9.7799 12.0209 2.8459 -8.8103 0.0000 0.0000 -11.6501 25.1461 0.4782 21.2580 0.0000 -0.0000 9.9276 -9.4596 1.0859 -4.5606 0.0000 0.0000 -5.9009 -27.5609 -3.7138 12.5476 -0.0000 0.0000
 -5.4303 35.2699 -9.6349 -1.5460 1.3669 -3.2266 -3.1729 -1.6756 0.7037 -9.2290 -16.8582 -3.9110 15.8297 13.9426 -16.6061 -12.9130 -23.7512 -71.6045 -13.8394 0.0000 15.4709 -0.4066 -2.5750 -8.9765 33.1476 -0.0000 26.2537 -23.9530 10.4821 -40.4489 -44.2265 30.5211 1.9035 29.7886 0.0000 6.5906 2.5817 6.7024 -21.1232 32.8623 0.0000 -24.3270 9.7374 12.0242 2.8684 -8.8066 -0.0000 -0.0000 -11.6495 25.1414 0.5005 21.2393 -0.0000 0.0000 9.8938 -9.4745 1.1086 -4.5562 -0.0000 -0.0000 -5.8911 -27.5411 -3.6972 12.5640 0.0000 -0.0000
 -5.4325 35.2698 -9.6405 -1.5052 1.3797 -3.2465 -3.2079 -1.5350 0.6860 -9.3527 -17.0178 -4.0013 15.8228 13.8864 -16.6095 -12.8931 -23.8743 -71.5590 -13.9438 0.0000 15.4024 -0.4113 -2.6027 -8.9831 33.1476 -0.0000 26.2537 -24.2461 10.6806 -40.4882 -47.2987 29.7262 4.2977 29.5605 0.0000 4.3249 2.4383 5.9615 -22.2935 32.8623 0.0000 -24.3270 9.6889 12.0175 2.8917 -8.8239 -0.0000 -0.0000 -11.6622 25.1377 0.5416 21.2926 -0.0000 0.0000 9.8537 -9.4831 1.1355 -4.5659 0.0000 0.0000 -5.8729 -27.5605 -3.6902 12.5149 -0.0000 0.0000
 -5.4348 35.2694 -9.6470 -1.4549 1.4122 -3.2620 -3.2490 -1.3925 0.6652 -9.4945 -17.1912 -4.1149 15.8126 13.8035 -16.6031 -12.8683 -24.0125 -71.5105 -14.0107 0.0000 15.3147 -0.4203 -2.6468 -9.0273 33.1476 -0.0000 26.2537 -24.7326 11.0130 -40.5542 -49.8684 28.8378 6.5627 29.3417 0.0000 1.7162 1.9407 4.2281 -24.6837 32.8623 0.0000 -24.3270 9.6190 11.9942 2.9147 -8.8249 0.0000 0.0000 -11.6616 25.1298 0.5648 21.2833 0.0000 -0.0000 9.8054 -9.5102 1.1609 -4.5714 0.0000 0.0000 -5.8593 -27.5709 -3.6950 12.5249 0.0000 -0.0000
 -5.4353 35.2666 -9.6523 -1.4016 1.4668 -3.2806 -3.3066 -1.2976 0.6387 -9.5525 -17.3088 -4.1530 15.7874 13.7907 -16.5725 -12.8621 -24.1127 -71.5363 -14.0450 0.0000 15.3429 -0.4226 -2.6603 -9.0303 33.1476 -0.0000 26.2537 -25.3367 11.6670 -40.7442 -52.8772 27.2290 9.1512 29.3652 0.0000 -0.4080 2.0113 4.2067 -25.5829 32.8623 0.0000 -24.3270 9.5574 11.9471 2.9405 -8.8466 0.0000 -0.0000 -11.6976 25.1115 0.6437 21.3902 0.0000 0.0000 9.7663 -9.5461 1.1898 -4.5868 -0.0000 0.0000 -5.8702 -27.5844 -3.7249 12.5432 -0.0000 -0.0000
 -5.4381 35.2647 -9.6582 -1.3458 1.5300 -3.2935 -3.3404 -1.1963 0.5974 -9.6653 -17.4646 -4.2124 15.7390 13.7907 -16.5377 -12.8297 -24.2833 -71.5291 -14.0676 0.0000 15.3383 -0.4268 -2.6889 -9.0224 33.1476 -0.0000 26.2537 -25.6213 11.7449 -40.7733 -56.0597 26.1872 11.3987 28.8834 0.0000 -2.9699 1.9181 3.6943 -27.4632 32.8623 0.0000 -24.3270 9.4899 11.9245 2.9615 -8.8726 0.0000 0.0000 -11.6862 25.0722 0.6866 21.3436 0.0000 0.0000 9.7268 -9.5669 1.2172 -4.6082 0.0000 -0.0000 -5.8748 -27.6206 -3.7563 12.5413 0.0000 0.0000
 -5.4395 35.2634 -9.6634 -1.2866 1.6014 -3.3057 -3.3956 -1.1103 0.5847 -9.7583 -17.5918 -4.3051 15.6941 13.7803 -16.5306 -12.7694 -24.4292 -71.5050 -14.0820 0.0000 15.3538 -0.4257 -2.6602 -9.0960 33.1476 -0.0000 26.2537 -25.9825 11.8847 -40.8200 -59.2306 25.0109 13.6466 28.2919 0.0000 -5.4385 2.1697 3.9502 -28.8096 32.8623 0.0000 -24.3270 9.4237 11.8737 2.9820 -8.9005 -0.0000 0.0000 -11.6797 25.0515 0.7281 21.3674 0.0000 -0.0000 9.6872 -9.5821 1.2417 -4.6283 -0.0000 -0.0000 -5.8755 -27.6659 -3.7744 12.5484 -0.0000 0.0000
 -5.4411 35.2619 -9.6691 -1.2183 1.6911 -3.3195 -3.4522 -1.0290 0.5714 -9.8524 -17.7085 -4.3720 15.6799 13.7592 -16.5245 -12.7645 -24.5436 -71.4946 -14.0692 0.0000 15.4721 -0.4214 -2.5424 -9.4149 33.1476 -0.0000 26.2537 -26.3549 11.9233 -40.8700 -62.3336 23.8209 15.8514 27.8247 0.0000 -7.7583 2.2210 3.8675 -29.8992 32.8623 0.0000 -24.3270 9.3455 11.8330 3.0062 -8.9346 0.0000 -0.0000 -11.6707 25.0074 0.7560 21.4504 -0.0000 0.0000 9.6411 -9.6267 1.2718 -4.6479 0.0000 -0.0000 -5.8802 -27.7049 -3.7863 12.5506 -0.0000 -0.0000
 -5.4433 35.2609 -9.6753 -1.1441 1.8004 -3.3307 -3.5185 -0.9810 0.5555 -9.9560 -17.8103 -4.4798 15.6373 13.7680 -16.5112 -12.7336 -24.6611 -71.4849 -14.0290 0.0000 15.5557 -0.4238 -2.5362 -9.4897 33.1476 -0.0000 26.2537 -26.7175 11.9957 -40.9433 -65.4081 22.4833 17.9244 27.3430 0.0000 -10.1516 1.9768 3.2163 -31.5993 32.8623 0.0000 -24.3270 9.2496 11.7858 3.0323 -8.9517 -0.0000 -0.0000 -11.6552 24.9352 0.7922 21.4490 -0.0000 0.0000 9.5971 -9.6672 1.3034 -4.6787 0.0000 0.0000 -5.8665 -27.7681 -3.7903 12.5939 0.0000 0.0000
 -5.4451 35.2596 -9.6805 -1.0758 1.9137 -3.3394 -3.5791 -0.9348 0.5439 -10.1046 -17.9866 -4.6217 15.6254 13.7504 -16.5047 -12.7188 -24.7544 -71.4665 -14.0071 0.0000 15.5265 -0.4276 -2.6745 -9.0876 33.1476 -0.0000 26.2537 -27.0261 11.9549 -41.0107 -68.4355 21.2384 19.8811 26.6466 0.0000 -12.2399 1.9443 2.9516 -33.3954 32.8623 0.0000 -24.3270 9.1673 11.7194 3.0541 -8.9783 0.0000 -0.0000 -11.6589 24.8979 0.8231 21.5427 0.0000 -0.0000 9.5642 -9.6902 1.3278 -4.7136 0.0000 0.0000 -5.8625 -27.8296 -3.8033 12.5651 0.0000 -0.0000
 -5.4471 35.2585 -9.6859 -1.0079 2.0469 -3.3521 -3.6408 -0.9122 0.5279 -10.1803 -18.1151 -4.6843 15.5964 13.7439 -16.4976 -12.7026 -24.8211 -71.4476 -13.9301 0.0000 15.6067 -0.4399 -2.7373 -9.1324 33.1476 -0.0000 26.2537 -27.3071 11.9246 -41.0437 -71.1776 20.0258 21.5695 25.8925 0.0000 -14.6323 1.9930 2.8171 -35.2996 32.8623 0.0000 -24.3270 9.0852 11.6268 3.0837 -9.0087 0.0000 0.0000 -11.6484 24.8673 0.8669 21.5487 -0.0000 0.0000 9.5358 -9.7463 1.3656 -4.7501 -0.0000 -0.0000 -5.8551 -27.9212 -3.7966 12.5442 -0.0000 -0.0000
 -5.4485 35.2570 -9.6913 -0.9394 2.1953 -3.3600 -3.6962 -0.8980 0.5000 -10.2551 -18.2274 -4.6837 15.5769 13.7452 -16.4797 -12.7211 -24.8460 -71.4540 -13.8682 0.0000 15.6987 -0.4358 -2.8173 -8.7967 33.1476 -0.0000 26.2537 -27.5799 11.9014 -41.0849 -73.4685 18.8805 22.9039 25.2646 0.0000 -16.9500 1.7458 2.3252 -36.9161 32.8623 0.0000 -24.3270 8.9959 11.5388 3.1071 -9.0313 0.0000 -0.0000 -11.6237 24.8240 0.8574 21.5552 -0.0000 0.0000 9.5092 -9.8177 1.3961 -4.7840 0.0000 0.0000 -5.8530 -27.9750 -3.8012 12.5470 -0.0000 -0.0000
 -5.4489 35.2563 -9.6958 -0.8795 2.3529 -3.3615 -3.7521 -0.8690 0.4699 -10.3018 -18.3754 -4.7061 15.5515 13.6958 -16.4604 -12.7140 -24.8480 -71.4435 -13.7737 0.0000 15.5886 -0.4333 -2.7939 -8.8189 33.1476 -0.0000 26.2537 -27.8314 11.8608 -41.1035 -75.4723 17.9652 24.0358 24.5208 0.0000 -19.3338 1.3493 1.6476 -39.3257 32.8623 0.0000 -24.3270 8.9159 11.4396 3.1251 -9.0495 -0.0000 -0.0000 -11.6102 24.7673 0.9079 21.5983 -0.0000 0.0000 9.4943 -9.8946 1.4197 -4.8193 -0.0000 0.0000 -5.8485 -28.0422 -3.7927 12.5463 0.0000 0.0000
 -5.4502 35.2551 -9.7003 -0.8176 2.5128 -3.3660 -3.8034 -0.8494 0.4361 -10.3062 -18.4118 -4.6609 15.5142 13.6919 -16.4472 -12.6944 -24.8902 -71.4278 -13.6646 0.0000 15.4950 -0.4269 -2.6809 -9.0502 33.1476 -0.0000 26.2537 -28.0835 11.8168 -41.1595 -77.1547 17.0363 24.9508 23.8165 0.0000 -21.2898 0.9355 1.0638 -41.3316 32.8623 0.0000 -24.3270 8.8295 11.3378 3.1479 -9.0631 0.0000 0.0000 -11.5918 24.7277 0.8988 21.6057 0.0000 -0.0000 9.4761 -9.9664 1.4518 -4.8526 -0.0000 -0.0000 -5.8569 -28.1226 -3.8221 12.5476 -0.0000 0.0000
 -5.4519 35.2544 -9.7040 -0.7644 2.6719 -3.3635 -3.8443 -0.8563 0.3919 -10.3613 -18.5245 -4.6172 15.4778 13.7117 -16.4440 -12.6921 -24.8585 -71.4158 -13.5553 0.0000 15.6048 -0.4191 -2.5434 -9.3609 33.1476 -0.0000 26.2537 -28.2939 11.7458 -41.1789 -78.4648 16.3858 25.6344 23.0865 -0.0000 -23.8589 0.6705 0.7097 -43.3725 32.8623 0.0000 -24.3270 8.7522 11.2337 3.1669 -9.0682 -0.0000 0.0000 -11.5650 24.6666 0.9588 21.5862 0.0000 -0.0000 9.4656 -10.0417 1.4742 -4.8814 -0.0000 -0.0000 -5.8623 -28.1909 -3.8167 12.5614 0.0000 -0.0000
 -5.4538 35.2540 -9.7093 -0.7092 2.8231 -3.3647 -3.8854 -0.8650 0.3589 -10.4148 -18.6086 -4.6001 15.4566 13.7188 -16.4528 -12.6957 -24.8092 -71.3878 -13.4378 0.0000 15.6064 -0.4221 -2.5358 -9.4534 33.1476 -0.0000 26.2537 -28.5004 11.7141 -41.2024 -79.4905 15.8583 26.1449 22.3922 -0.0000 -25.7096 0.0488 0.0482 -45.3534 32.8623 0.0000 -24.3270 8.6664 11.1532 3.1877 -9.0685 -0.0000 -0.0000 -11.5523 24.5915 0.9821 21.6214 -0.0000 -0.0000 9.4406 -10.0943 1.4979 -4.8956 0.0000 -0.0000 -5.8749 -28.2810 -3.8515 12.5557 -0.0000 -0.0000
 -5.4545 35.2537 -9.7170 -0.6329 2.9806 -3.3644 -3.9512 -0.8751 0.3293 -10.4573 -18.7114 -4.5660 15.4604 13.7020 -16.4609 -12.7343 -24.6745 -71.3708 -13.3603 0.0000 15.5517 -0.4240 -2.6466 -9.1060 33.1476 -0.0000 26.2537 -28.6894 11.6950 -41.2134 -80.1850 15.4800 26.4555 21.7119 -0.0000 -27.3725 -0.5413 -0.5047 -47.0013 32.8623 0.0000 -24.3270 8.5559 11.0280 3.2068 -9.0647 0.0000 0.0000 -11.5399 24.5599 0.9939 21.6427 -0.0000 0.0000 9.3805 -10.1741 1.5160 -4.8844 0.0000 0.0000 -5.8966 -28.3367 -3.8446 12.5291 0.0000 0.0000
 -5.4443 35.2522 -9.7130 -0.6147 2.9790 -3.4034 -3.9985 -0.7343 0.4363 -10.4995 -18.8300 -4.6757 15.4972 13.6873 -16.5354 -12.7186 -24.5411 -71.3828 -13.3688 0.0000 15.4543 -0.4082 -2.6008 -8.9238 33.1476 -0.0000 26.2537 -28.8495 11.7208 -41.2895 -80.7185 15.2157 26.7092 20.9648 -0.0000 -29.4455 -0.6023 -0.5370 -48.2809 32.8623 0.0000 -24.3270 8.5784 11.0455 3.2172 -9.1416 0.0000 0.0000 -11.5542 24.5522 1.0664 21.6522 0.0000 -0.0000 9.3575 -10.0870 1.5265 -4.8528 -0.0000 0.0000 -5.8955 -28.4142 -3.8045 12.5508 -0.0000 -0.0000
 -5.4440 35.2523 -9.7205 -0.5507 3.1732 -3.3955 -4.0633 -0.7813 0.3793 -10.4913 -18.9184 -4.5620 15.4829 13.6504 -16.5168 -12.7811 -24.3872 -71.3831 -13.1690 0.0000 15.2729 -0.4272 -2.7355 -8.8792 33.1476 -0.0000 26.2537 -28.9174 11.6787 -41.2085 -81.0087 15.1942 26.7051 20.2572 -0.0000 -31.2647 -0.9784 -0.8374 -49.4437 32.8623 0.0000 -24.3270 8.4623 10.9183 3.2321 -9.1107 -0.0000 0.0000 -11.5399 24.4918 1.0660 21.6896 0.0000 -0.0000 9.3144 -10.2020 1.5441 -4.8432 0.0000 0.0000 -5.9136 -28.4913 -3.8061 12.5538 -0.0000 0.0000
